<?xml version="1.0" encoding="UTF-8" standalone="no"?>
<!-- Created with Inkscape (http://www.inkscape.org/) -->

<svg
   xmlns:osb="http://www.openswatchbook.org/uri/2009/osb"
   xmlns:dc="http://purl.org/dc/elements/1.1/"
   xmlns:cc="http://creativecommons.org/ns#"
   xmlns:rdf="http://www.w3.org/1999/02/22-rdf-syntax-ns#"
   xmlns:svg="http://www.w3.org/2000/svg"
   xmlns="http://www.w3.org/2000/svg"
   xmlns:sodipodi="http://sodipodi.sourceforge.net/DTD/sodipodi-0.dtd"
   xmlns:inkscape="http://www.inkscape.org/namespaces/inkscape"
   width="210mm"
   height="297mm"
   viewBox="0 0 744.09448819 1052.3622047"
   id="svg2"
   version="1.1"
   inkscape:version="0.91 r13725"
   sodipodi:docname="all_components.svg">
  <defs
     id="defs4">
    <inkscape:perspective
       sodipodi:type="inkscape:persp3d"
       inkscape:vp_x="0 : 526.1811 : 1"
       inkscape:vp_y="0 : 1000 : 0"
       inkscape:vp_z="473.09449 : 609.1811 : 1"
       inkscape:persp3d-origin="372.04724 : 350.7874 : 1"
       id="perspective4275" />
    <linearGradient
       id="linearGradient4211"
       osb:paint="solid">
      <stop
         style="stop-color:#000000;stop-opacity:1;"
         offset="0"
         id="stop4213" />
    </linearGradient>
  </defs>
  <sodipodi:namedview
     id="base"
     pagecolor="#ffffff"
     bordercolor="#666666"
     borderopacity="1.0"
     inkscape:pageopacity="0.0"
     inkscape:pageshadow="2"
     inkscape:zoom="9.8799615"
     inkscape:cx="115.6019"
     inkscape:cy="129.01592"
     inkscape:document-units="px"
     inkscape:current-layer="layer1"
     showgrid="false"
     inkscape:object-nodes="true"
     inkscape:snap-bbox="true"
     inkscape:snap-global="true"
     inkscape:snap-nodes="true"
     inkscape:snap-page="false"
     inkscape:snap-grids="false"
     inkscape:snap-center="true"
     inkscape:window-width="1920"
     inkscape:window-height="1056"
     inkscape:window-x="0"
     inkscape:window-y="24"
     inkscape:window-maximized="1" />
  <metadata
     id="metadata7">
    <rdf:RDF>
      <cc:Work
         rdf:about="">
        <dc:format>image/svg+xml</dc:format>
        <dc:type
           rdf:resource="http://purl.org/dc/dcmitype/StillImage" />
        <dc:title />
      </cc:Work>
    </rdf:RDF>
  </metadata>
  <g
     inkscape:label="Layer 1"
     inkscape:groupmode="layer"
     id="layer1"
     style="display:inline">
    <path
       style="fill:#800000;fill-rule:evenodd;stroke:#000000;stroke-width:5.75301695;stroke-linecap:butt;stroke-linejoin:miter;stroke-miterlimit:4;stroke-dasharray:none;stroke-opacity:1"
       d="m 65.34107,50.51938 c -5.14374,0 -9.2864,4.14032 -9.2864,9.28437 l 0,23.67826 c 0,5.14405 4.14266,9.28436 9.2864,9.28436 l 23.6742,0 c 5.14372,0 9.28638,-4.14031 9.28638,-9.28436 l 0,-23.67826 c 0,-5.14405 -4.14266,-9.28437 -9.28638,-9.28437 z"
       id="rect3336"
       inkscape:connector-curvature="0"
       sodipodi:nodetypes="sssssssss" />
    <path
       style="fill:#800000;stroke:none;stroke-width:1px;stroke-linecap:butt;stroke-linejoin:miter;stroke-opacity:1;fill-opacity:1"
       d="m 322.04467,330.9016 c 0.12286,-0.032 0.29332,-0.0299 0.37881,0.005 0.0855,0.0346 -0.015,0.0608 -0.22337,0.0582 -0.20835,-0.003 -0.27829,-0.0309 -0.15544,-0.0629 z"
       id="path3391"
       inkscape:connector-curvature="0"
       inkscape:export-xdpi="90"
       inkscape:export-ydpi="90" />
    <rect
       style="fill:#800000;stroke:#000000;stroke-width:7.32118797;stroke-linejoin:round;stroke-miterlimit:4;stroke-dasharray:none;stroke-opacity:1;fill-opacity:1"
       id="rect4273"
       width="1016.6788"
       height="92.67881"
       x="159.0453"
       y="617.63818"
       rx="0"
       ry="0"
       inkscape:export-xdpi="90"
       inkscape:export-ydpi="90" />
    <rect
       style="fill:#800000;fill-opacity:1;stroke:#000000;stroke-width:3.94530368;stroke-linejoin:miter;stroke-miterlimit:4;stroke-dasharray:none;stroke-opacity:1"
       id="rect4291"
       width="18.054697"
       height="496.05469"
       x="157.10075"
       y="118.57832"
       inkscape:export-xdpi="90"
       inkscape:export-ydpi="90" />
    <rect
       style="display:inline;fill:#800000;fill-opacity:1;stroke:#000000;stroke-width:3.94530368;stroke-linejoin:miter;stroke-miterlimit:4;stroke-dasharray:none;stroke-opacity:1"
       id="rect4291-3"
       width="18.054697"
       height="496.05469"
       x="1159.614"
       y="118.22475"
       inkscape:export-xdpi="90"
       inkscape:export-ydpi="90" />
    <rect
       style="display:inline;fill:#800000;fill-opacity:1;stroke:#000000;stroke-width:5.65600348;stroke-linejoin:miter;stroke-miterlimit:4;stroke-dasharray:none;stroke-opacity:1"
       id="rect4291-6"
       width="18.05479"
       height="1019.4967"
       x="118.44186"
       y="-1177.0338"
       transform="matrix(-0.00368045,0.99999323,-0.99999962,-8.7134643e-4,0,0)"
       inkscape:export-xdpi="90"
       inkscape:export-ydpi="90" />
    <rect
       style="fill:#000080;fill-opacity:1;stroke:#000000;stroke-width:4.68110228;stroke-linejoin:miter;stroke-miterlimit:4;stroke-dasharray:none;stroke-opacity:1"
       id="rect4391"
       width="165.31889"
       height="19.318897"
       x="266.34058"
       y="34.702755"
       rx="10.453796"
       ry="8.421978"
       inkscape:export-xdpi="90"
       inkscape:export-ydpi="90" />
    <circle
       style="fill:#cc0000;fill-opacity:1;stroke:#000000;stroke-width:3.92603302;stroke-linejoin:miter;stroke-miterlimit:4;stroke-dasharray:none;stroke-opacity:1"
       id="path4393"
       inkscape:export-xdpi="90"
       inkscape:export-ydpi="90"
       cy="47.862202"
       cx="198.25"
       r="14.036983" />
    <rect
       style="opacity:1;fill:#800000;fill-opacity:1;stroke:#000000;stroke-width:4.172;stroke-linejoin:miter;stroke-miterlimit:4;stroke-dasharray:none;stroke-opacity:1"
       id="rect5999"
       width="206.7178"
       height="84.74189"
       x="511.11688"
       y="12.793921"
       rx="8.843998"
       ry="9.5504427"
       inkscape:export-xdpi="90"
       inkscape:export-ydpi="90" />
    <text
       xml:space="preserve"
       style="font-style:normal;font-variant:normal;font-weight:normal;font-stretch:normal;font-size:41.63677979px;line-height:125%;font-family:'Courier 10 Pitch';-inkscape-font-specification:'Courier 10 Pitch';letter-spacing:0px;word-spacing:0px;fill:#000000;fill-opacity:1;stroke:none;stroke-width:5;stroke-linecap:butt;stroke-linejoin:miter;stroke-miterlimit:4;stroke-dasharray:none;stroke-opacity:1"
       x="516.77515"
       y="70.401489"
       id="text6001"
       sodipodi:linespacing="125%"
       transform="scale(1.0595824,0.94376801)"
       inkscape:export-xdpi="90"
       inkscape:export-ydpi="90"><tspan
         sodipodi:role="line"
         x="516.77515"
         y="70.401489"
         id="tspan6005">START</tspan></text>
    <path
       sodipodi:type="star"
       style="opacity:1;fill:#ff0000;fill-opacity:1;stroke:#000000;stroke-width:4.17199993;stroke-linejoin:miter;stroke-miterlimit:4;stroke-dasharray:none;stroke-opacity:1"
       id="path4212"
       sodipodi:sides="3"
       sodipodi:cx="111.48271"
       sodipodi:cy="783.64679"
       sodipodi:r1="51.114204"
       sodipodi:r2="25.5571"
       sodipodi:arg1="0.93141042"
       sodipodi:arg2="1.978608"
       inkscape:flatsided="false"
       inkscape:rounded="0"
       inkscape:randomized="0"
       d="m 141.9827,824.66401 -40.63597,-17.55603 -40.63597,-17.55604 35.52196,-26.41376 35.52196,-26.41377 5.11401,43.9698 z"
       inkscape:transform-center-x="0.17480736"
       inkscape:transform-center-y="-4.7144214" />
    <path
       style="opacity:1;fill:#ff0000;fill-opacity:1;stroke:#000000;stroke-width:4.17199993;stroke-linejoin:miter;stroke-miterlimit:4;stroke-dasharray:none;stroke-opacity:1"
       id="path4214"
       d="m 262.41917,898.56173 c -2.65995,-1.88228 -5.42199,-3.60417 -8.32286,-5.08741 -3.12086,-1.73213 -6.56314,-2.56955 -10.06131,-3.09822 -2.48931,-0.32799 -5.00257,-0.36969 -7.5095,-0.37243 -1.24042,0.0298 -2.36823,0.38078 -3.44043,0.98339 -0.28209,0.15855 -1.11928,0.65001 -0.83748,0.49094 1.94874,-1.10009 3.8923,-2.20935 5.83845,-3.31402 -1.55265,1.01964 -2.7051,2.44308 -3.76132,3.94304 -1.24101,1.84783 -1.64433,4.02913 -2.05716,6.17412 -0.34642,1.90143 -0.50586,3.82751 -0.57047,5.75689 -0.0565,2.00227 -0.04,4.00568 -0.0555,6.00853 -0.007,2.63799 -0.0113,5.2759 -2.5e-4,7.91387 -0.0718,2.55151 0.93138,4.80696 2.16612,6.97278 1.55212,2.62268 3.60746,4.91745 5.63977,7.17447 2.65923,2.94539 5.60873,5.60223 8.59254,8.21056 2.31779,1.9498 4.56356,3.99866 6.97572,5.83245 1.84516,1.44581 3.86191,2.64627 5.89745,3.799 2.08785,1.14326 4.25055,2.13073 6.43103,3.08092 1.88525,0.85909 3.67048,1.90647 5.51256,2.85286 1.89822,1.03761 3.83774,1.99621 5.76721,2.97527 1.59665,0.88011 3.24093,1.63779 4.96296,2.23473 1.20679,0.47244 2.43793,0.82795 3.59075,1.42687 0.19108,0.14544 0.40895,0.19708 0.63459,0.25597 0,0 -6.51363,4.38862 -6.51363,4.38862 l 0,0 c -0.2282,-0.10637 -0.45008,-0.22341 -0.66514,-0.35476 -1.10616,-0.5794 -2.31317,-0.90812 -3.46388,-1.38587 -1.72645,-0.64829 -3.37984,-1.43383 -4.9917,-2.33117 -1.92325,-0.98337 -3.86119,-1.93963 -5.7511,-2.98585 -1.83541,-0.92695 -3.62179,-1.94555 -5.48586,-2.81508 -2.20119,-0.95936 -4.35903,-2.0024 -6.46997,-3.14869 -2.07147,-1.15779 -4.08397,-2.42432 -5.94533,-3.9018 -2.38535,-1.87945 -4.62168,-3.94919 -6.92927,-5.92219 -2.96052,-2.67128 -5.92964,-5.34028 -8.62252,-8.2874 -2.08981,-2.28073 -4.2567,-4.57529 -5.81034,-7.26598 -1.30527,-2.26911 -2.38744,-4.64438 -2.35816,-7.32211 0.009,-2.63505 0.001,-5.27001 -0.0152,-7.90503 -0.0219,-2.00235 -0.03,-4.00488 -0.007,-6.00728 0.0666,-1.97607 0.21249,-3.94624 0.58372,-5.89234 0.39385,-2.20692 0.73137,-4.46673 1.868,-6.4371 1.02404,-1.56637 2.13853,-3.08088 3.65303,-4.21348 2.45753,-1.45306 4.90637,-2.92092 7.37258,-4.3592 1.38445,-0.80741 2.90786,-1.18153 4.50878,-1.15461 2.50606,0.0372 5.01638,0.1336 7.49627,0.527 3.53317,0.6217 7.01209,1.52687 10.15345,3.32314 2.94764,1.529 5.72756,3.32756 8.57932,5.02413 0,0 -6.57901,4.21247 -6.57901,4.21247 z"
       inkscape:connector-curvature="0" />
    <path
       style="opacity:1;fill:#ff0000;fill-opacity:1;stroke:#000000;stroke-width:4.17199993;stroke-linejoin:miter;stroke-miterlimit:4;stroke-dasharray:none;stroke-opacity:1"
       id="path4216"
       d="m 261.80926,893.08914 c 2.35795,-2.36313 4.82393,-4.61102 7.32187,-6.82421 2.86424,-2.45263 5.66642,-4.96828 8.71415,-7.19298 4.70743,-3.26138 9.669,-6.34721 15.12175,-8.16906 3.38835,-0.92206 6.91171,-1.03796 10.40029,-1.1321 3.85103,-0.19104 7.63506,0.805 11.26754,1.9847 2.22284,0.83225 4.54709,1.50239 6.65411,2.61884 1.01364,0.5371 1.70267,1.05265 2.63699,1.69919 2.30413,1.71724 4.01678,4.19862 5.05424,6.86952 0.26667,0.68654 0.46526,1.39762 0.69789,2.09643 1.38331,4.75476 1.81652,9.69322 2.19329,14.60802 0.22593,3.61556 0.20045,7.24153 0.20894,10.86268 0.23386,3.36296 -0.50083,5.59647 -2.09057,8.50463 -1.32299,2.43775 -3.16834,4.48925 -5.15316,6.40018 -4.45179,3.83938 -9.8346,6.52646 -14.88387,9.43912 -2.75598,1.39524 -5.54174,2.72826 -8.23945,4.23447 -2.56017,1.37939 -3.93189,2.13323 4.07974,-2.38705 0.41322,-0.23314 -0.8144,0.48716 -1.21641,0.73914 -1.12859,0.7074 -2.20274,1.484 -3.28043,2.26533 -1.93445,1.2938 -3.49428,3.01223 -4.9674,4.79133 -1.08962,1.42289 -2.05801,2.94267 -2.9241,4.51139 -0.65501,1.34948 -0.90604,2.8382 -1.09014,4.31324 -0.1104,0.97811 -0.12874,1.96254 -0.13982,2.94569 -0.0143,0.93325 -0.008,1.86691 0.004,2.80018 0.0107,0.52028 0.0137,1.04063 0.0184,1.56096 0.004,0.35455 9.9e-4,0.70914 0.002,1.06371 0,0 -7.00151,3.56739 -7.00151,3.56739 l 0,0 c 10e-4,-0.35504 -0.002,-0.71009 0.002,-1.06511 0.004,-0.52498 0.006,-1.04998 0.013,-1.57494 0.007,-0.93515 0.003,-1.8705 -0.01,-2.80557 0.002,-1.01837 0.0514,-2.03559 0.15196,-3.04926 0.17599,-1.55309 0.435,-3.09566 0.94933,-4.57731 0.88253,-1.60949 1.87981,-3.15674 2.93051,-4.66121 1.43975,-1.84623 3.0096,-3.63856 4.931,-4.9974 4.26747,-3.10487 8.75171,-5.86035 13.48733,-8.23072 2.70503,-1.47141 5.49206,-2.78016 8.21002,-4.22715 -11.51473,6.66691 -0.18657,0.34018 1.90322,-1.75454 2.00731,-1.82883 3.86584,-3.82917 5.23923,-6.18881 1.62903,-2.72274 2.4967,-4.92687 2.29527,-8.16452 0.0193,-3.61748 0.0324,-7.23595 -0.12381,-10.85117 -0.24472,-4.86507 -0.66041,-9.75523 -2.08858,-14.43904 -1.20924,-3.50277 -2.5258,-6.25421 -5.60338,-8.49013 -1.02772,-0.70773 -1.41486,-1.02097 -2.54399,-1.60177 -2.08777,-1.07392 -4.35566,-1.78291 -6.55769,-2.57172 -3.60935,-1.12638 -7.32933,-2.00083 -11.13993,-1.76047 -3.45972,0.11948 -6.96216,0.28048 -10.28612,1.34053 -1.58294,0.59153 -1.39122,0.48413 -2.91619,1.19569 -0.4895,0.2284 -1.91491,0.99542 -1.45803,0.70724 9.98492,-6.29806 4.48265,-2.60713 2.31857,-1.21015 -3.08206,2.18165 -5.89901,4.66614 -8.75805,7.1286 -2.44595,2.15523 -4.89792,4.31197 -7.12909,6.69377 0,0 -7.20503,2.98442 -7.20503,2.98442 z"
       inkscape:connector-curvature="0" />
    <path
       style="fill:#ff0000;fill-rule:evenodd;stroke:#000000;stroke-width:3;stroke-linecap:butt;stroke-linejoin:miter;stroke-miterlimit:4;stroke-dasharray:none;stroke-opacity:1"
       d="m 74.256925,931.95538 c -3.846047,-10.47297 -9.741888,-9.69204 -14.080671,-8.83157 -5.418388,3.55373 -7.485358,8.0217 -6.021179,14.05158 5.464372,11.49638 9.982422,13.26193 21.191065,19.44147 10.770225,-7.2884 19.372795,-17.78034 17.725287,-27.74864 -2.047869,-6.05112 -4.968682,-7.31694 -9.207502,-6.94352 -4.686132,0.69395 -8.2168,1.85883 -9.607,10.03068 z"
       id="path4218"
       inkscape:connector-curvature="0"
       sodipodi:nodetypes="ccccccc"
       inkscape:export-xdpi="90"
       inkscape:export-ydpi="90" />
  </g>
</svg>
